<svg width="25" height="24" viewBox="0 0 25 24" fill="none" xmlns="http://www.w3.org/2000/svg">
<path d="M3.90234 20.0938H7.51172V9.25H3.90234V20.0938ZM7.74609 5.90625C7.73568 5.36458 7.54818 4.91667 7.18359 4.5625C6.81901 4.20833 6.33464 4.03125 5.73047 4.03125C5.1263 4.03125 4.63411 4.20833 4.25391 4.5625C3.8737 4.91667 3.68359 5.36458 3.68359 5.90625C3.68359 6.4375 3.86849 6.88281 4.23828 7.24219C4.60807 7.60156 5.08984 7.78125 5.68359 7.78125H5.69922C6.3138 7.78125 6.80859 7.60156 7.18359 7.24219C7.55859 6.88281 7.74609 6.4375 7.74609 5.90625ZM16.8867 20.0938H20.4961V13.875C20.4961 12.2708 20.1159 11.0573 19.3555 10.2344C18.5951 9.41146 17.5898 9 16.3398 9C14.9232 9 13.8346 9.60938 13.0742 10.8281H13.1055V9.25H9.49609C9.52734 9.9375 9.52734 13.5521 9.49609 20.0938H13.1055V14.0312C13.1055 13.6354 13.1419 13.3438 13.2148 13.1562C13.3711 12.7917 13.6055 12.4818 13.918 12.2266C14.2305 11.9714 14.6159 11.8438 15.0742 11.8438C16.2826 11.8438 16.8867 12.6615 16.8867 14.2969V20.0938ZM24.1992 4.5V19.5C24.1992 20.7396 23.7591 21.7995 22.8789 22.6797C21.9987 23.5599 20.9388 24 19.6992 24H4.69922C3.45964 24 2.39974 23.5599 1.51953 22.6797C0.639323 21.7995 0.199219 20.7396 0.199219 19.5V4.5C0.199219 3.26042 0.639323 2.20052 1.51953 1.32031C2.39974 0.440104 3.45964 0 4.69922 0H19.6992C20.9388 0 21.9987 0.440104 22.8789 1.32031C23.7591 2.20052 24.1992 3.26042 24.1992 4.5Z" fill="#25004D"/>
</svg>
